<svg xmlns="http://www.w3.org/2000/svg" xmlns:xlink="http://www.w3.org/1999/xlink" width="6912" zoomAndPan="magnify" viewBox="0 0 5184 2592.000001" height="3456" preserveAspectRatio="xMidYMid meet" version="1.0"><path stroke-linecap="butt" transform="matrix(0.377566, 0, 0, 0.377566, 1312.707803, 560.335362)" fill="none" stroke-linejoin="miter" d="M 1078.608131 -64.670599 L 939.559445 503.815055 L 846.498215 17.165346 L 681.729661 17.165346 L 709.653203 165.235643 L 626.710248 503.815055 L 519.144088 -64.670599 L 354.375533 -64.670599 L 514.767779 784.095408 L 724.427125 784.095408 L 782.726184 548.705847 L 827.616976 784.095408 L 1037.00733 784.095408 L 1245.570013 -64.670599 Z M 1751.142344 -65.767263 L 1301.706781 -66.863927 L 1301.706781 781.902081 L 1751.142344 781.902081 L 1751.142344 619.326854 L 1464.292354 619.326854 L 1464.292354 416.506137 L 1649.31815 416.506137 L 1649.31815 253.920564 L 1464.292354 253.920564 L 1464.292354 95.721646 L 1751.142344 95.721646 Z M 1807.330842 781.902081 L 2256.756059 781.902081 L 2256.756059 619.326854 L 1969.916415 619.326854 L 1969.916415 -66.863927 L 1807.330842 -66.863927 Z M 2763.745777 -65.767263 L 2501.260344 -65.767263 C 2396.984176 -65.767263 2312.954903 18.531003 2312.954903 121.441515 L 2312.954903 593.59664 C 2312.954903 697.872808 2396.984176 781.902081 2501.260344 781.902081 L 2763.745777 781.902081 L 2763.745777 619.326854 L 2501.260344 619.326854 C 2486.755414 619.326854 2475.53013 608.101569 2475.53013 593.59664 L 2475.53013 121.441515 C 2475.53013 108.033249 2486.755414 95.721646 2501.260344 95.721646 L 2763.745777 95.721646 Z M 3125.696541 -63.304942 L 3008.001761 -63.304942 C 2904.81191 -63.304942 2819.696319 20.72433 2819.696319 125.000499 L 2819.696319 595.779621 C 2819.696319 700.066136 2904.81191 784.095408 3008.001761 784.095408 L 3125.696541 784.095408 C 3229.983056 784.095408 3314.012328 700.066136 3314.012328 595.779621 L 3314.012328 125.000499 C 3314.012328 20.72433 3229.983056 -63.304942 3125.696541 -63.304942 Z M 3152.792412 595.779621 C 3152.792412 610.294897 3140.201471 621.509836 3125.696541 621.509836 L 3008.001761 621.509836 C 2993.496831 621.509836 2982.271546 610.294897 2982.271546 595.779621 L 2982.271546 125.000499 C 2982.271546 110.226576 2993.496831 97.904628 3008.001761 97.904628 L 3125.696541 97.904628 C 3140.201471 97.904628 3152.792412 110.226576 3152.792412 125.000499 Z M 3751.436319 -66.863927 L 3647.149805 149.63405 L 3541.766627 -66.863927 L 3370.159443 -66.863927 L 3370.159443 781.902081 L 3532.73467 781.902081 L 3532.73467 284.027088 L 3648.246469 520.782305 L 3760.188938 288.682735 L 3760.188938 781.902081 L 3922.77451 781.902081 L 3922.77451 -66.863927 Z M 4428.346842 -65.767263 L 3978.921625 -66.863927 L 3978.921625 781.902081 L 4428.346842 781.902081 L 4428.346842 619.326854 L 4141.496852 619.326854 L 4141.496852 416.506137 L 4326.522648 416.506137 L 4326.522648 253.920564 L 4141.496852 253.920564 L 4141.496852 95.721646 L 4428.346842 95.721646 Z M 4708.761692 -63.304942 L 4708.761692 97.904628 L 4926.356332 97.904628 L 4926.356332 784.095408 L 5087.576248 784.095408 L 5087.576248 97.904628 L 5305.170888 97.904628 L 5305.170888 -63.304942 L 5087.576248 -63.304942 L 5087.576248 -64.670599 L 4926.356332 -64.670599 L 4926.356332 -63.304942 Z M 5667.245803 -63.304942 L 5549.551022 -63.304942 C 5446.371518 -63.304942 5361.245581 20.72433 5361.245581 125.000499 L 5361.245581 595.779621 C 5361.245581 700.066136 5446.371518 784.095408 5549.551022 784.095408 L 5667.245803 784.095408 C 5771.532317 784.095408 5855.56159 700.066136 5855.56159 595.779621 L 5855.56159 125.000499 C 5855.56159 20.72433 5771.532317 -63.304942 5667.245803 -63.304942 Z M 5694.341674 595.779621 C 5694.341674 610.294897 5681.761079 621.509836 5667.245803 621.509836 L 5549.551022 621.509836 C 5535.046093 621.509836 5523.831154 610.294897 5523.831154 595.779621 L 5523.831154 125.000499 C 5523.831154 110.226576 5535.046093 97.904628 5549.551022 97.904628 L 5667.245803 97.904628 C 5681.761079 97.904628 5694.341674 110.226576 5694.341674 125.000499 Z M 5694.341674 595.779621 " stroke="#000000" stroke-width="32.231911" stroke-opacity="1" stroke-miterlimit="4"/><path stroke-linecap="butt" transform="matrix(0.862388, 0, 0, 0.862388, 133.668923, 1079.847112)" fill="none" stroke-linejoin="miter" d="M 1587.759411 -66.864935 L 1483.475036 149.639627 L 1378.099035 -66.864935 L 1206.482547 -66.864935 L 1206.482547 781.904697 L 1369.067065 781.904697 L 1369.067065 284.027548 L 1484.571193 520.788364 L 1596.519606 288.68395 L 1596.519606 781.904697 L 1759.099594 781.904697 L 1759.099594 -66.864935 Z M 1977.828177 -66.864935 L 1815.248189 -66.864935 L 1815.248189 781.904697 L 1977.828177 781.904697 Z M 2320.984149 -66.864935 L 2320.984149 170.987508 L 2205.475491 -66.864935 L 2033.863533 -66.864935 L 2033.863533 781.904697 L 2196.443521 781.904697 L 2196.443521 284.027548 L 2320.984149 539.672157 L 2320.984149 781.904697 L 2483.292362 781.904697 L 2483.292362 -66.864935 Z M 2845.486132 -65.768778 L 2539.481723 -65.768778 L 2539.481723 781.904697 L 2845.486132 781.904697 C 2949.770506 781.904697 3033.798627 696.780419 3033.798627 593.592202 L 3033.798627 122.539188 C 3033.798627 18.531117 2949.770506 -65.768778 2845.486132 -65.768778 Z M 2872.586571 593.592202 C 2872.586571 608.100426 2859.994356 619.32018 2845.486132 619.32018 L 2702.066241 619.32018 L 2702.066241 95.719582 L 2845.486132 95.719582 C 2859.994356 95.719582 2872.586571 108.035493 2872.586571 122.539188 Z M 3299.607599 613.848455 L 3472.315714 613.848455 L 3504.887878 781.904697 L 3669.660179 781.904697 L 3507.075662 -66.864935 L 3424.143698 -66.864935 L 3421.67961 -65.768778 L 3385.823504 -65.768778 L 3384.731877 -66.864935 L 3301.795383 -66.864935 L 3301.795383 -65.768778 L 3089.947223 781.904697 L 3258.003465 781.904697 Z M 3397.047788 221.351837 L 3440.839706 451.263938 L 3339.843802 451.263938 Z M 3888.19852 -66.864935 L 3725.614003 -66.864935 L 3725.614003 781.904697 L 3888.19852 781.904697 Z M 4250.238284 -65.768778 L 3944.229346 -65.768778 L 3944.229346 781.904697 L 4250.238284 781.904697 C 4354.518129 781.904697 4438.54625 696.780419 4438.54625 593.592202 L 4438.54625 122.539188 C 4438.54625 18.531117 4354.518129 -65.768778 4250.238284 -65.768778 Z M 4277.334194 593.592202 C 4277.334194 608.100426 4264.741979 619.32018 4250.238284 619.32018 L 4106.813864 619.32018 L 4106.813864 95.719582 L 4250.238284 95.719582 C 4264.741979 95.719582 4277.334194 108.035493 4277.334194 122.539188 Z M 4277.334194 593.592202 " stroke="#000000" stroke-width="32.231911" stroke-opacity="1" stroke-miterlimit="4"/></svg>