<svg xmlns="http://www.w3.org/2000/svg" xmlns:xlink="http://www.w3.org/1999/xlink" width="6912" zoomAndPan="magnify" viewBox="0 0 5184 2592.000001" height="3456" preserveAspectRatio="xMidYMid meet" version="1.0"><path stroke-linecap="butt" transform="matrix(0.377566, 0, 0, 0.377566, 1312.707803, 560.335362)" fill="none" stroke-linejoin="miter" d="M 1078.608131 -64.670599 L 939.559445 503.815055 L 846.498215 17.165346 L 681.729661 17.165346 L 709.653203 165.235643 L 626.710248 503.815055 L 519.144088 -64.670599 L 354.375533 -64.670599 L 514.767779 784.095408 L 724.427125 784.095408 L 782.726184 548.705847 L 827.616976 784.095408 L 1037.00733 784.095408 L 1245.570013 -64.670599 Z M 1751.142344 -65.767263 L 1301.706781 -66.863927 L 1301.706781 781.902081 L 1751.142344 781.902081 L 1751.142344 619.326854 L 1464.292354 619.326854 L 1464.292354 416.506137 L 1649.31815 416.506137 L 1649.31815 253.920564 L 1464.292354 253.920564 L 1464.292354 95.721646 L 1751.142344 95.721646 Z M 1807.330842 781.902081 L 2256.756059 781.902081 L 2256.756059 619.326854 L 1969.916415 619.326854 L 1969.916415 -66.863927 L 1807.330842 -66.863927 Z M 2763.745777 -65.767263 L 2501.260344 -65.767263 C 2396.984176 -65.767263 2312.954903 18.531003 2312.954903 121.441515 L 2312.954903 593.59664 C 2312.954903 697.872808 2396.984176 781.902081 2501.260344 781.902081 L 2763.745777 781.902081 L 2763.745777 619.326854 L 2501.260344 619.326854 C 2486.755414 619.326854 2475.53013 608.101569 2475.53013 593.59664 L 2475.53013 121.441515 C 2475.53013 108.033249 2486.755414 95.721646 2501.260344 95.721646 L 2763.745777 95.721646 Z M 3125.696541 -63.304942 L 3008.001761 -63.304942 C 2904.81191 -63.304942 2819.696319 20.72433 2819.696319 125.000499 L 2819.696319 595.779621 C 2819.696319 700.066136 2904.81191 784.095408 3008.001761 784.095408 L 3125.696541 784.095408 C 3229.983056 784.095408 3314.012328 700.066136 3314.012328 595.779621 L 3314.012328 125.000499 C 3314.012328 20.72433 3229.983056 -63.304942 3125.696541 -63.304942 Z M 3152.792412 595.779621 C 3152.792412 610.294897 3140.201471 621.509836 3125.696541 621.509836 L 3008.001761 621.509836 C 2993.496831 621.509836 2982.271546 610.294897 2982.271546 595.779621 L 2982.271546 125.000499 C 2982.271546 110.226576 2993.496831 97.904628 3008.001761 97.904628 L 3125.696541 97.904628 C 3140.201471 97.904628 3152.792412 110.226576 3152.792412 125.000499 Z M 3751.436319 -66.863927 L 3647.149805 149.63405 L 3541.766627 -66.863927 L 3370.159443 -66.863927 L 3370.159443 781.902081 L 3532.73467 781.902081 L 3532.73467 284.027088 L 3648.246469 520.782305 L 3760.188938 288.682735 L 3760.188938 781.902081 L 3922.77451 781.902081 L 3922.77451 -66.863927 Z M 4428.346842 -65.767263 L 3978.921625 -66.863927 L 3978.921625 781.902081 L 4428.346842 781.902081 L 4428.346842 619.326854 L 4141.496852 619.326854 L 4141.496852 416.506137 L 4326.522648 416.506137 L 4326.522648 253.920564 L 4141.496852 253.920564 L 4141.496852 95.721646 L 4428.346842 95.721646 Z M 4708.761692 -63.304942 L 4708.761692 97.904628 L 4926.356332 97.904628 L 4926.356332 784.095408 L 5087.576248 784.095408 L 5087.576248 97.904628 L 5305.170888 97.904628 L 5305.170888 -63.304942 L 5087.576248 -63.304942 L 5087.576248 -64.670599 L 4926.356332 -64.670599 L 4926.356332 -63.304942 Z M 5667.245803 -63.304942 L 5549.551022 -63.304942 C 5446.371518 -63.304942 5361.245581 20.72433 5361.245581 125.000499 L 5361.245581 595.779621 C 5361.245581 700.066136 5446.371518 784.095408 5549.551022 784.095408 L 5667.245803 784.095408 C 5771.532317 784.095408 5855.56159 700.066136 5855.56159 595.779621 L 5855.56159 125.000499 C 5855.56159 20.72433 5771.532317 -63.304942 5667.245803 -63.304942 Z M 5694.341674 595.779621 C 5694.341674 610.294897 5681.761079 621.509836 5667.245803 621.509836 L 5549.551022 621.509836 C 5535.046093 621.509836 5523.831154 610.294897 5523.831154 595.779621 L 5523.831154 125.000499 C 5523.831154 110.226576 5535.046093 97.904628 5549.551022 97.904628 L 5667.245803 97.904628 C 5681.761079 97.904628 5694.341674 110.226576 5694.341674 125.000499 Z M 5694.341674 595.779621 " stroke="#000000" stroke-width="32.231911" stroke-opacity="1" stroke-miterlimit="4"/><path stroke-linecap="butt" transform="matrix(0.862388, 0, 0, 0.862388, 133.668923, 1079.847112)" fill="none" stroke-linejoin="miter" d="M 1455.482271 442.231968 C 1454.386114 399.536206 1439.606115 359.300004 1413.878137 327.823996 C 1447.546458 287.587793 1466.702025 235.855532 1466.702025 177.55539 C 1466.702025 45.355253 1367.893905 -53.452867 1228.849582 -64.677151 L 1015.905265 -63.30469 L 1015.905265 784.097011 L 1178.489782 784.097011 L 1178.489782 418.691774 L 1267.169775 418.691774 C 1281.678 418.691774 1292.897754 429.916057 1292.897754 443.328125 L 1295.090068 784.097011 L 1456.578428 784.097011 Z M 1202.029976 256.111786 L 1179.585939 256.111786 L 1179.585939 96.811209 L 1202.029976 96.811209 C 1218.725985 96.811209 1304.122037 101.467611 1304.122037 177.55539 C 1304.122037 250.363757 1226.661798 256.111786 1202.029976 256.111786 Z M 1972.075619 -65.768778 L 1522.64679 -66.864935 L 1522.64679 781.904697 L 1972.075619 781.904697 L 1972.075619 619.32018 L 1685.231307 619.32018 L 1685.231307 416.503989 L 1870.255332 416.503989 L 1870.255332 253.919472 L 1685.231307 253.919472 L 1685.231307 95.719582 L 1972.075619 95.719582 Z M 2028.26498 781.904697 L 2477.698339 781.904697 L 2477.698339 619.32018 L 2190.849497 619.32018 L 2190.849497 -66.864935 L 2028.26498 -66.864935 Z M 2983.316529 -65.768778 L 2533.8877 -66.864935 L 2533.8877 781.904697 L 2983.316529 781.904697 L 2983.316529 619.32018 L 2696.467688 619.32018 L 2696.467688 416.503989 L 2881.496242 416.503989 L 2881.496242 253.919472 L 2696.467688 253.919472 L 2696.467688 95.719582 L 2983.316529 95.719582 Z M 3450.89083 -64.677151 L 3310.75035 503.816052 L 3203.182035 -64.677151 L 3039.50589 -64.677151 L 3198.806467 784.097011 L 3409.55847 784.097011 L 3618.12722 -64.677151 Z M 4123.482695 -65.768778 L 3674.053866 -66.864935 L 3674.053866 781.904697 L 4123.482695 781.904697 L 4123.482695 619.32018 L 3836.638383 619.32018 L 3836.638383 416.503989 L 4021.662408 416.503989 L 4021.662408 253.919472 L 3836.638383 253.919472 L 3836.638383 95.719582 L 4123.482695 95.719582 Z M 4179.672056 781.904697 L 4629.100885 781.904697 L 4629.100885 619.32018 L 4342.256573 619.32018 L 4342.256573 -66.864935 L 4179.672056 -66.864935 Z M 4179.672056 781.904697 " stroke="#000000" stroke-width="32.231911" stroke-opacity="1" stroke-miterlimit="4"/></svg>